# xmcd CD database file
#
# Track frame offsets:
#	150
#	10943
#	23028
#	36587
#	47748
#	61313
#	77849
#	90074
#	104385
#	118109
#	131976
#	145987
#	159107
#	171950
#	182813
#	198337
#	212021
#	222878
#
# Disc length: 3127 seconds
#
# Revision: 0
# Processed by: cddbd v1.5.1PL0 Copyright (c) Steve Scherf et al.
# Submitted via: CDex 1.51
#
DISCID=f90c3512
DTITLE=Bud Powell - The Quintessence [CD 2)
DYEAR=1944
DGENRE=Jazz
TTITLE0=Off Minor
TTITLE1=Everything Happens To Me
TTITLE2=Cheryl
TTITLE3=Tempus Fugue-It
TTITLE4=Celia
TTITLE5=Cherokee
TTITLE6=I'll Keep Loving You
TTITLE7=Stricly Confidential
TTITLE8=All God's Chillun Got Rythm I
TTITLE9=Boucing With Bud II
TTITLE10=Wail
TTITLE11=Dance Of The Infidels
TTITLE12=52nd Street Theme
TTITLE13=Ornithology
TTITLE14=PArisian Thoroughfare
TTITLE15=All God's Children Got Rhytm II
TTITLE16=Sonny Side
TTITLE17=Bud's Blues
EXTD=YEAR: 1944
EXTT0=
EXTT1=
EXTT2=
EXTT3=
EXTT4=
EXTT5=
EXTT6=
EXTT7=
EXTT8=
EXTT9=
EXTT10=
EXTT11=
EXTT12=
EXTT13=
EXTT14=
EXTT15=
EXTT16=
EXTT17=
PLAYORDER=
